<?xml version="1.0" encoding="UTF-8" standalone="no"?>
<!DOCTYPE svg PUBLIC "-//W3C//DTD SVG 1.1//EN" "http://www.w3.org/Graphics/SVG/1.1/DTD/svg11.dtd">
<svg width="100%" height="100%" viewBox="0 0 128 128" version="1.1" xmlns="http://www.w3.org/2000/svg" xmlns:xlink="http://www.w3.org/1999/xlink" xml:space="preserve" xmlns:serif="http://www.serif.com/" style="fill-rule:evenodd;clip-rule:evenodd;stroke-linecap:round;stroke-linejoin:round;stroke-miterlimit:1.5;">
    <g transform="matrix(1.38231,0,0,1.38231,-14.5688,-41.66)">
        <path d="M45.839,91.023C45.839,79.979 36.829,71.32 36.829,60.276C36.829,49.232 45.795,40.266 56.839,40.266C67.883,40.266 76.849,49.232 76.849,60.276C76.849,71.32 67.839,79.979 67.839,91.023L45.839,91.023Z" style="stroke:black;stroke-width:0.72px;"/>
    </g>
    <g transform="matrix(0.603217,0,0,0.582024,29.0966,34.7718)">
        <path d="M82.987,95.427C82.987,97.144 81.643,98.537 79.986,98.537L35.574,98.537C33.917,98.537 32.573,97.144 32.573,95.427C32.573,93.711 33.917,92.317 35.574,92.317L79.986,92.317C81.643,92.317 82.987,93.711 82.987,95.427Z" style="stroke:black;stroke-width:1.69px;"/>
    </g>
    <g transform="matrix(0.603217,0,0,0.582024,29.0966,42.5417)">
        <path d="M82.987,95.427C82.987,97.144 81.643,98.537 79.986,98.537L35.574,98.537C33.917,98.537 32.573,97.144 32.573,95.427C32.573,93.711 33.917,92.317 35.574,92.317L79.986,92.317C81.643,92.317 82.987,93.711 82.987,95.427Z" style="stroke:black;stroke-width:1.69px;"/>
    </g>
    <g transform="matrix(0.603217,0,0,0.582024,29.0966,50.3117)">
        <path d="M82.987,95.427C82.987,97.144 81.643,98.537 79.986,98.537L35.574,98.537C33.917,98.537 32.573,97.144 32.573,95.427C32.573,93.711 33.917,92.317 35.574,92.317L79.986,92.317C81.643,92.317 82.987,93.711 82.987,95.427Z" style="stroke:black;stroke-width:1.69px;"/>
    </g>
    <g transform="matrix(-0.41223,1.53365e-16,-2.03749e-16,-0.704291,82.8684,182.415)">
        <path d="M60.88,104.813L30.19,104.813C30.19,100.575 37.06,97.14 45.535,97.14C54.01,97.14 60.88,100.575 60.88,104.813Z" style="stroke:black;stroke-width:1.73px;"/>
    </g>
</svg>
